# xmcd
#
# Track frame offsets: 
#        150
#        38891
#        51877
#        57731
#        117342
#        133613
#        154696
#        168432
#        191733
#        228298
#
# Disc length: 3318 seconds
#
# Revision: 2
# Processed by: cddbd v1.5.2PL0 Copyright (c) Steve Scherf et al.
# Submitted via: ExactAudioCopy v1.0b3
#
DISCID=8a0cf40a
DTITLE=Bettina Greve - Peter Lohmeyer - Auf Kurs - Die Johnny-Cash-Biog
DTITLE=rafie
DYEAR=2004
DGENRE=Hörbuch
TTITLE0=Und dann ist da noch Bob Dylan
TTITLE1=Johnny Cash - Man in black
TTITLE2="The man in black" wird zu Cashs Synonym
TTITLE3=Bettina Greve - Peter Lohmeyer - Johnny Cash - One piece at a ti
TTITLE3=me
TTITLE4=Johnny Cash - The baron
TTITLE5=Wieder zuhause
TTITLE6=The Highwaymen - Highwayman
TTITLE7=Mag Cashs Teilnahme
TTITLE8=Nur ein Jahr später
TTITLE9=Ich weiß nicht genau
EXTD=
EXTT0=
EXTT1=
EXTT2=
EXTT3=
EXTT4=
EXTT5=
EXTT6=
EXTT7=
EXTT8=
EXTT9=
PLAYORDER=
